<?xml version="1.0" encoding="utf-8"?><svg viewBox="0 0 17 18" xmlns="http://www.w3.org/2000/svg" xmlns:xlink="http://www.w3.org/1999/xlink"><style>:root>svg{display:none}:root>svg:target{display:block}</style><svg fill="none" viewBox="0 0 17 17" id="icons--buy" xmlns="http://www.w3.org/2000/svg"><g clip-path="url(#aa)"><path d="M2.606 2H0V0h4.394l.449 4H16v5.938L3.77 12.37 2.605 2zM15.5 17a1.5 1.5 0 1 1 0-3 1.5 1.5 0 0 1 0 3zm-10 0a1.5 1.5 0 1 1 0-3 1.5 1.5 0 0 1 0 3z" fill="#000"/></g><defs><clipPath id="aa"><path fill="#fff" d="M0 0h17v17H0z"/></clipPath></defs></svg><svg fill="none" viewBox="0 0 9 15" id="icons--facebook" xmlns="http://www.w3.org/2000/svg"><g clip-path="url(#ba)"><path d="m7.754 8.625.383-2.516H5.703V4.47c0-.711.328-1.367 1.422-1.367h1.121V.942S7.234.75 6.277.75C4.281.75 2.97 1.98 2.97 4.168v1.941H.727v2.516h2.242v6.125h2.734V8.625h2.05z" fill="#141414"/></g><defs><clipPath id="ba"><path fill="#fff" d="M0 0h9v15H0z"/></clipPath></defs></svg><svg fill="none" viewBox="0 0 17 18" id="icons--instagram" xmlns="http://www.w3.org/2000/svg"><g clip-path="url(#ca)"><path d="M8.5 4.607a4.268 4.268 0 0 0-4.268 4.268A4.245 4.245 0 0 0 8.5 13.143a4.268 4.268 0 0 0 4.268-4.268c0-2.338-1.93-4.268-4.268-4.268zm0 7.051a2.78 2.78 0 0 1-2.783-2.783c0-1.521 1.224-2.746 2.783-2.746a2.74 2.74 0 0 1 2.746 2.746c0 1.559-1.225 2.783-2.746 2.783zm5.418-7.199a.998.998 0 0 0-1.002-1.002.998.998 0 0 0-1.002 1.002.998.998 0 0 0 1.002 1.002.998.998 0 0 0 1.002-1.002zm2.82 1.002c-.074-1.336-.37-2.524-1.336-3.488C14.438 1.008 13.25.71 11.914.637 10.541.562 6.422.562 5.05.637c-1.336.074-2.487.37-3.488 1.336C.596 2.937.299 4.125.225 5.46c-.075 1.373-.075 5.492 0 6.865.074 1.336.37 2.486 1.336 3.489 1.002.964 2.152 1.261 3.488 1.335 1.373.075 5.492.075 6.865 0 1.336-.074 2.524-.37 3.488-1.335.965-1.002 1.262-2.153 1.336-3.489.075-1.373.075-5.492 0-6.865zm-1.781 8.312c-.26.743-.854 1.3-1.559 1.596-1.113.446-3.71.334-4.898.334-1.225 0-3.822.112-4.898-.334a2.813 2.813 0 0 1-1.596-1.596c-.445-1.076-.334-3.673-.334-4.898 0-1.188-.111-3.785.334-4.898a2.862 2.862 0 0 1 1.596-1.559c1.076-.445 3.673-.334 4.898-.334 1.188 0 3.785-.111 4.898.334.706.26 1.262.853 1.559 1.559.445 1.113.334 3.71.334 4.898 0 1.225.111 3.822-.334 4.898z" fill="#fff"/></g><defs><clipPath id="ca"><path fill="#fff" d="M0 0h17v18H0z"/></clipPath></defs></svg><svg fill="none" viewBox="0 0 13 13" id="icons--linken" xmlns="http://www.w3.org/2000/svg"><g clip-path="url(#da)"><path d="M3.11 13V4.824H.565V13H3.11zM1.823 3.73c.82 0 1.477-.683 1.477-1.503 0-.793-.656-1.45-1.477-1.45a1.46 1.46 0 0 0-1.449 1.45c0 .82.656 1.503 1.45 1.503zM12.598 13h.027V8.516c0-2.188-.492-3.883-3.063-3.883-1.23 0-2.05.683-2.406 1.312H7.13v-1.12H4.695V13h2.543V8.953c0-1.066.192-2.078 1.504-2.078 1.313 0 1.34 1.203 1.34 2.16V13h2.516z" fill="#141414"/></g><defs><clipPath id="da"><path fill="#fff" d="M0 0h13v13H0z"/></clipPath></defs></svg><svg fill="none" viewBox="0 0 14 12" id="icons--twitter" xmlns="http://www.w3.org/2000/svg"><g clip-path="url(#ea)"><path d="M12.55 2.906a6.083 6.083 0 0 0 1.423-1.476 5.382 5.382 0 0 1-1.641.437A2.805 2.805 0 0 0 13.59.281a6.063 6.063 0 0 1-1.805.711A2.871 2.871 0 0 0 9.68.09a2.87 2.87 0 0 0-2.871 2.87c0 .22.027.438.082.657A8.33 8.33 0 0 1 .957.61c-.246.41-.383.903-.383 1.45 0 .984.492 1.859 1.285 2.378-.464-.027-.93-.136-1.312-.355v.027c0 1.395.984 2.543 2.297 2.817-.219.054-.492.11-.739.11-.19 0-.355-.028-.546-.056a2.857 2.857 0 0 0 2.68 1.997 5.772 5.772 0 0 1-3.555 1.23c-.247 0-.465-.027-.684-.055a8.004 8.004 0 0 0 4.402 1.286c5.278 0 8.149-4.348 8.149-8.149v-.383z" fill="#141414"/></g><defs><clipPath id="ea"><path fill="#fff" d="M0 0h14v12H0z"/></clipPath></defs></svg><svg fill="none" viewBox="0 0 17 17" id="src--icons--buy" xmlns="http://www.w3.org/2000/svg"><g clip-path="url(#fa)"><path d="M2.606 2H0V0h4.394l.449 4H16v5.938L3.77 12.37 2.605 2ZM15.5 17a1.5 1.5 0 1 1 0-3 1.5 1.5 0 0 1 0 3Zm-10 0a1.5 1.5 0 1 1 0-3 1.5 1.5 0 0 1 0 3Z" fill="#000"/></g><defs><clipPath id="fa"><path fill="#fff" d="M0 0h17v17H0z"/></clipPath></defs></svg><svg fill="none" viewBox="0 0 9 15" id="src--icons--facebook" xmlns="http://www.w3.org/2000/svg"><g clip-path="url(#ga)"><path d="m7.754 8.625.383-2.516H5.703V4.47c0-.711.328-1.367 1.422-1.367h1.121V.942S7.234.75 6.277.75C4.281.75 2.97 1.98 2.97 4.168v1.941H.727v2.516h2.242v6.125h2.734V8.625h2.05Z" fill="#141414"/></g><defs><clipPath id="ga"><path fill="#fff" d="M0 0h9v15H0z"/></clipPath></defs></svg><svg fill="none" viewBox="0 0 17 18" id="src--icons--instagram" xmlns="http://www.w3.org/2000/svg"><g clip-path="url(#ha)"><path d="M8.5 4.607a4.268 4.268 0 0 0-4.268 4.268A4.245 4.245 0 0 0 8.5 13.143a4.268 4.268 0 0 0 4.268-4.268c0-2.338-1.93-4.268-4.268-4.268Zm0 7.051a2.78 2.78 0 0 1-2.783-2.783c0-1.521 1.224-2.746 2.783-2.746a2.74 2.74 0 0 1 2.746 2.746c0 1.559-1.225 2.783-2.746 2.783Zm5.418-7.199a.998.998 0 0 0-1.002-1.002.998.998 0 0 0-1.002 1.002.998.998 0 0 0 1.002 1.002.998.998 0 0 0 1.002-1.002Zm2.82 1.002c-.074-1.336-.37-2.524-1.336-3.488C14.438 1.008 13.25.71 11.914.637 10.541.562 6.422.562 5.05.637c-1.336.074-2.487.37-3.488 1.336C.596 2.937.299 4.125.225 5.46c-.075 1.373-.075 5.492 0 6.865.074 1.336.37 2.486 1.336 3.489 1.002.964 2.152 1.261 3.488 1.335 1.373.075 5.492.075 6.865 0 1.336-.074 2.524-.37 3.488-1.335.965-1.002 1.262-2.153 1.336-3.489.075-1.373.075-5.492 0-6.865Zm-1.781 8.312c-.26.743-.854 1.3-1.559 1.596-1.113.446-3.71.334-4.898.334-1.225 0-3.822.112-4.898-.334a2.813 2.813 0 0 1-1.596-1.596c-.445-1.076-.334-3.673-.334-4.898 0-1.188-.111-3.785.334-4.898a2.862 2.862 0 0 1 1.596-1.559c1.076-.445 3.673-.334 4.898-.334 1.188 0 3.785-.111 4.898.334.706.26 1.262.853 1.559 1.559.445 1.113.334 3.71.334 4.898 0 1.225.111 3.822-.334 4.898Z" fill="#fff"/></g><defs><clipPath id="ha"><path fill="#fff" d="M0 0h17v18H0z"/></clipPath></defs></svg><svg fill="none" viewBox="0 0 13 13" id="src--icons--linken" xmlns="http://www.w3.org/2000/svg"><g clip-path="url(#ia)"><path d="M3.11 13V4.824H.565V13H3.11ZM1.823 3.73c.82 0 1.477-.683 1.477-1.503 0-.793-.656-1.45-1.477-1.45-.793 0-1.449.657-1.449 1.45 0 .82.656 1.503 1.45 1.503ZM12.598 13h.027V8.516c0-2.188-.492-3.883-3.063-3.883-1.23 0-2.05.683-2.406 1.312H7.13v-1.12H4.695V13h2.543V8.953c0-1.066.192-2.078 1.504-2.078 1.313 0 1.34 1.203 1.34 2.16V13h2.516Z" fill="#141414"/></g><defs><clipPath id="ia"><path fill="#fff" d="M0 0h13v13H0z"/></clipPath></defs></svg><svg fill="none" viewBox="0 0 14 12" id="src--icons--twitter" xmlns="http://www.w3.org/2000/svg"><g clip-path="url(#ja)"><path d="M12.55 2.906a6.083 6.083 0 0 0 1.423-1.476 5.382 5.382 0 0 1-1.641.437A2.805 2.805 0 0 0 13.59.281a6.063 6.063 0 0 1-1.805.711A2.871 2.871 0 0 0 9.68.09a2.87 2.87 0 0 0-2.871 2.87c0 .22.027.438.082.657A8.33 8.33 0 0 1 .957.61c-.246.41-.383.903-.383 1.45 0 .984.492 1.859 1.285 2.378-.464-.027-.93-.136-1.312-.355v.027c0 1.395.984 2.543 2.297 2.817-.219.054-.492.11-.739.11-.19 0-.355-.028-.546-.056a2.857 2.857 0 0 0 2.68 1.997 5.772 5.772 0 0 1-3.555 1.23c-.247 0-.465-.027-.684-.055 1.258.82 2.762 1.286 4.402 1.286 5.278 0 8.149-4.348 8.149-8.149v-.383Z" fill="#141414"/></g><defs><clipPath id="ja"><path fill="#fff" d="M0 0h14v12H0z"/></clipPath></defs></svg></svg>